<svg xmlns="http://www.w3.org/2000/svg" viewBox="0 0 1200 800" role="img" aria-labelledby="t d">
<title id="t">Zone E — Réserve de boutique</title><desc id="d">Illustration reconstituée d’un poste de travail pour observation.</desc>
<rect width="1200" height="800" fill="#f6f2e9"/><rect x="30" y="30" width="1140" height="740" rx="28" fill="#fff" stroke="#d3c7b5" stroke-width="4"/>
<rect x="30" y="30" width="1140" height="90" rx="28" fill="#eef4ef"/><circle cx="92" cy="75" r="32" fill="#17583d"/>
<text x="92" y="86" text-anchor="middle" font-family="Arial" font-size="32" font-weight="700" fill="#fff">E</text>
<text x="145" y="88" font-family="Arial" font-size="34" font-weight="700" fill="#183a2d">Réserve de boutique</text>
<path d="M115 220v410M500 220v410M115 295h385M115 390h385M115 485h385M115 580h385" stroke="#34443d" stroke-width="9" fill="none"/>
<rect x="145" y="240" width="150" height="50" rx="7" fill="#e7c7a6" stroke="#34443d" stroke-width="5"/><rect x="285" y="330" width="165" height="55" rx="7" fill="#d9dfda" stroke="#34443d" stroke-width="5"/>
<rect x="155" y="415" width="215" height="65" rx="7" fill="#e7c7a6" stroke="#34443d" stroke-width="5"/><rect x="330" y="510" width="125" height="65" rx="7" fill="#d9dfda" stroke="#34443d" stroke-width="5"/>
<path d="M720 250l-95 365M855 250l95 365M680 345h215M655 435h265M630 525h315" stroke="#34443d" stroke-width="9" fill="none"/>
<rect x="515" y="555" width="125" height="55" rx="8" fill="#d9dfda" stroke="#34443d" stroke-width="5"/><path d="M535 610v65M620 610v65" stroke="#34443d" stroke-width="8"/>
<rect x="990" y="290" width="95" height="265" fill="#4d5e58"/><path d="M990 350h95M990 420h95M990 490h95" stroke="#e7c7a6" stroke-width="5"/>
<text x="600" y="742" text-anchor="middle" font-family="Arial" font-size="22" fill="#4f5c55">Relever les faits visibles avant toute interprétation.</text></svg>