<svg width="76" height="76" xmlns="http://www.w3.org/2000/svg" xmlns:xlink="http://www.w3.org/1999/xlink" xml:space="preserve" overflow="hidden"><g transform="translate(-56 -205)"><path d="M90.8899 212.345C103.153 212.333 113.103 222.264 113.115 234.527 113.115 234.822 113.11 235.116 113.098 235.411L113.097 235.439 113.097 236.287 113.308 236.653 118.771 246.156 118.792 246.193 118.815 246.228C119.329 246.848 119.481 247.693 119.215 248.453 118.991 248.913 118.56 249.238 118.056 249.327L113.097 249.327 113.097 255.661C113.106 257.749 112.308 259.759 110.869 261.273 109.408 262.75 107.416 263.581 105.339 263.58L99.8761 263.58 99.8761 273.083 78.0246 273.083 78.0246 253.855 77.4101 253.379C71.8671 249.097 68.6396 242.473 68.6825 235.468L68.6825 235.44 68.6815 235.411C68.2052 223.157 77.7526 212.838 90.0062 212.361 90.3006 212.35 90.5953 212.344 90.8899 212.345M90.8899 210.761C77.7527 210.749 67.0932 221.39 67.0814 234.527 67.0811 234.841 67.0871 235.155 67.0992 235.468 67.0684 242.96 70.5204 250.041 76.4413 254.632L76.4413 274.667 101.459 274.667 101.459 265.164 105.338 265.164C107.835 265.159 110.228 264.162 111.988 262.392 113.725 260.583 114.691 258.169 114.68 255.661L114.68 250.91 118.163 250.91C120.222 250.673 122.043 248.297 120.143 245.367L114.68 235.864 114.68 235.468C115.188 222.341 104.958 211.287 91.8307 210.779 91.5173 210.767 91.2036 210.761 90.8899 210.761Z"/><path d="M103.508 228.389C103.834 228.097 103.861 227.596 103.57 227.271 103.281 226.949 102.788 226.918 102.462 227.201 102.001 227.582 101.459 227.854 100.877 227.995 99.3914 228.246 97.8642 228.018 96.5165 227.344 96.1087 227.095 95.7261 226.807 95.3739 226.484 96.6904 225.908 97.782 224.917 98.4813 223.662 98.6812 223.273 98.528 222.796 98.1392 222.596 97.7503 222.396 97.273 222.549 97.0731 222.938 96.4903 223.957 95.5637 224.735 94.4592 225.133 92.8306 225.58 91.1175 225.623 89.4687 225.257 89.16 225.191 88.7733 225.096 88.3834 224.998 89.2749 224.309 89.807 223.254 89.8313 222.128 89.8234 221.833 89.8205 221.554 89.8205 221.551 89.8164 221.117 89.4631 220.767 89.0288 220.767L89.0214 220.767C88.5842 220.771 88.2331 221.128 88.2371 221.566 88.2371 221.566 88.2398 221.861 88.2488 222.171 88.2096 222.806 87.8947 223.391 87.3867 223.774 86.6784 224.211 85.9063 224.534 85.0983 224.733 84.9055 224.792 84.7234 224.861 84.5336 224.922 84.3835 224.523 84.1696 224.151 83.9002 223.82 83.3745 223.238 82.6958 222.816 81.9416 222.602 81.5198 222.486 81.0845 222.735 80.9693 223.157 80.8541 223.579 81.1027 224.014 81.5245 224.129 81.5287 224.13 81.533 224.131 81.5372 224.132 81.9766 224.266 82.3742 224.511 82.6918 224.843 82.8511 225.045 82.9771 225.271 83.065 225.512 82.4752 225.814 81.9189 226.178 81.4054 226.597 80.4477 227.455 79.8003 228.606 79.5637 229.87 79.4333 229.755 79.3133 229.629 79.2055 229.492 78.7904 228.782 78.5285 227.992 78.4366 227.175 78.3846 226.741 77.9905 226.431 77.5564 226.483 77.1222 226.535 76.8125 226.929 76.8645 227.363 76.9885 228.456 77.355 229.507 77.9372 230.44 78.3842 230.975 78.9088 231.441 79.4935 231.822 79.5698 232.979 79.9257 234.101 80.5306 235.091 80.2617 235.41 79.9707 235.709 79.6598 235.986 79.2117 236.353 78.5295 236.815 78.5225 236.82 78.1666 237.074 78.0839 237.568 78.3379 237.924 78.583 238.268 79.0544 238.358 79.4096 238.131 79.4397 238.11 80.1575 237.624 80.662 237.211 80.9702 236.945 81.2596 236.658 81.5279 236.352 81.9456 236.716 82.3863 237.053 82.8472 237.36 83.9002 238.096 85.0927 238.931 85.4043 240.073 85.5072 240.701 85.5689 241.334 85.5891 241.97L85.5957 248.303 87.179 248.301 87.1724 241.969C87.1532 241.193 87.0728 240.42 86.932 239.656 86.4701 237.962 84.9652 236.909 83.7557 236.062 83.2568 235.747 82.7948 235.377 82.3782 234.959 81.999 234.511 81.6944 234.004 81.4758 233.459 81.9473 233.305 82.429 233.184 82.9173 233.097 83.431 233.062 83.9465 233.064 84.46 233.102 84.8963 233.131 85.2735 232.801 85.3027 232.365 85.3319 231.929 85.0018 231.551 84.5656 231.522 83.9476 231.477 83.3271 231.479 82.7093 231.527 82.1622 231.619 81.6224 231.75 81.0943 231.92 81.054 231.577 81.0359 231.232 81.0401 230.886 81.0576 229.697 81.5723 228.57 82.4592 227.779 83.0425 227.321 83.6828 226.94 84.3641 226.647 84.748 226.497 85.1542 226.372 85.564 226.246 85.7673 226.184 85.9723 226.119 86.1771 226.053 86.369 226.106 87.2058 226.335 88.0479 226.546 88.649 227.299 89.0228 228.208 89.1253 229.166 89.1247 230.179 88.8378 231.17 88.2977 232.027 88.0793 232.336 87.8317 232.623 87.5586 232.884 87.2301 233.173 87.1978 233.673 87.4865 234.002 87.7751 234.33 88.2753 234.362 88.6038 234.074 88.6074 234.071 88.6111 234.067 88.6147 234.064 88.975 233.725 89.3004 233.351 89.5861 232.948 89.6897 232.798 89.7845 232.643 89.8703 232.483 90.6306 232.374 91.3839 232.222 92.1265 232.027 92.6681 231.846 93.187 231.603 93.6731 231.304 94.04 231.066 94.1446 230.576 93.9067 230.209 93.6725 229.848 93.1928 229.74 92.8266 229.966 92.4573 230.192 92.0641 230.376 91.6541 230.516 91.2792 230.619 90.8991 230.704 90.5155 230.768 90.6416 230.244 90.7064 229.706 90.7086 229.166 90.6843 228.403 90.4917 227.655 90.1446 226.975 90.7068 227.049 91.2733 227.087 91.8403 227.087 92.4152 227.086 92.9893 227.042 93.5575 226.954 94.2168 227.629 94.9521 228.224 95.7488 228.729 96.2312 228.984 96.7412 229.184 97.2688 229.323 97.2733 229.325 97.2759 229.33 97.2804 229.332 98.355 229.825 99.3517 230.472 100.238 231.254 100.902 231.999 101.303 232.94 101.381 233.935 101.381 234.37 101.732 234.723 102.167 234.726L102.172 234.726C102.607 234.726 102.961 234.375 102.964 233.94 102.893 232.559 102.352 231.244 101.431 230.213 101.232 229.992 101.014 229.789 100.779 229.606 100.916 229.588 101.056 229.574 101.188 229.548 102.042 229.35 102.837 228.953 103.508 228.389Z"/><path d="M107.246 226.57C107.134 223.296 104.49 220.676 101.215 220.593 100.487 218.989 99.1048 217.775 97.4198 217.261 95.771 216.757 93.9884 216.942 92.4781 217.774 91.2735 216.875 89.7857 216.439 88.2863 216.546 86.7616 216.683 85.3335 217.351 84.2503 218.433 83.9246 218.386 83.596 218.362 83.2669 218.361 80.7489 218.338 78.4672 219.84 77.4945 222.163 74.8096 222.897 72.9418 225.328 72.9254 228.112 72.9264 228.612 72.9913 229.111 73.1186 229.595 71.7401 231.607 71.6838 234.245 72.9752 236.314 72.9798 236.484 72.9988 236.652 73.0321 236.819 73.8109 240.661 77.3186 242.4 78.6186 242.75 78.6274 242.752 78.7009 242.769 78.7097 242.771 80.878 243.232 81.2019 246.435 81.2019 248.303L82.7852 248.303C82.7852 242.835 80.4384 241.52 79.016 241.218 78.2393 241.009 75.2107 239.596 74.5826 236.499 74.5589 236.352 74.5491 236.202 74.5537 236.053L74.5487 235.816 74.4141 235.621C73.2944 233.979 73.373 231.8 74.6081 230.244L74.8773 229.907 74.7413 229.499C74.5896 229.052 74.5111 228.584 74.5089 228.112 74.5254 225.917 76.084 224.036 78.2379 223.613L78.6821 223.524 78.8306 223.096C79.4728 221.197 81.2622 219.926 83.2667 219.945 83.6368 219.945 84.0061 219.984 84.368 220.062L84.8372 220.167 85.146 219.799C85.9746 218.838 87.1443 218.238 88.4077 218.124 89.6785 218.034 90.9305 218.469 91.872 219.327L92.3331 219.75 92.8511 219.399C94.0528 218.582 95.5601 218.352 96.9509 218.774 98.3475 219.204 99.4567 220.272 99.939 221.651L100.128 222.173 101.002 222.173C103.553 222.15 105.641 224.197 105.667 226.748L105.667 227.489 106.078 227.714C107.628 228.57 108.535 230.253 108.398 232.018 108.151 234.491 106.033 236.352 103.549 236.279L96.5002 236.279C93.065 236.292 90.2695 239.047 90.2059 242.482L90.2059 248.303 91.7893 248.303 91.7893 242.494C91.8412 239.927 93.9326 237.871 96.5002 237.862L103.549 237.862C106.868 237.935 109.678 235.426 109.978 232.12 110.146 229.91 109.099 227.785 107.246 226.57Z"/></g></svg>